HIERARCHY
ROOT joint_Root
{
	OFFSET 0.0 0.0 0.0
	CHANNELS 6 Xposition Yposition Zposition Zrotation Xrotation Yrotation 
	JOINT Hips
	{
		OFFSET 4.5925 91.4895 -427.239
		CHANNELS 6 Xposition Yposition Zposition Zrotation Xrotation Yrotation 
		JOINT Spine
		{
			OFFSET 15.7357 0.0 0.0
			CHANNELS 6 Xposition Yposition Zposition Zrotation Xrotation Yrotation 
			JOINT Chest
			{
				OFFSET 8.98455 -0.406207 0.0
				CHANNELS 6 Xposition Yposition Zposition Zrotation Xrotation Yrotation 
				JOINT Neck
				{
					OFFSET 16.3773 0.0 0.0
					CHANNELS 6 Xposition Yposition Zposition Zrotation Xrotation Yrotation 
					JOINT Head
					{
						OFFSET 6.45672 0.0 0.0
						CHANNELS 6 Xposition Yposition Zposition Zrotation Xrotation Yrotation 
						End Site
						{
							OFFSET 0.0 0.0 0.0
						}
					}
				}
				JOINT Shoulder_L
				{
					OFFSET 12.9942 -0.242716 4.98039
					CHANNELS 6 Xposition Yposition Zposition Zrotation Xrotation Yrotation 
					JOINT UpperArm_L
					{
						OFFSET 5.34809 0.0 0.0
						CHANNELS 6 Xposition Yposition Zposition Zrotation Xrotation Yrotation 
						JOINT LowerArm_L
						{
							OFFSET 24.3286 1.87007e-05 0.0
							CHANNELS 6 Xposition Yposition Zposition Zrotation Xrotation Yrotation 
							JOINT Hand_L
							{
								OFFSET 22.2916 0.0 0.0
								CHANNELS 6 Xposition Yposition Zposition Zrotation Xrotation Yrotation 
								End Site
								{
									OFFSET 0.0 0.0 0.0
								}
							}
						}
					}
				}
				JOINT Shoulder_R
				{
					OFFSET 12.9945 -0.242716 -4.98039
					CHANNELS 6 Xposition Yposition Zposition Zrotation Xrotation Yrotation 
					JOINT UpperArm_R
					{
						OFFSET -5.34813 0.0 0.0
						CHANNELS 6 Xposition Yposition Zposition Zrotation Xrotation Yrotation 
						JOINT LowerArm_R
						{
							OFFSET -24.3289 0.000322201 0.0
							CHANNELS 6 Xposition Yposition Zposition Zrotation Xrotation Yrotation 
							JOINT Hand_R
							{
								OFFSET -22.2915 -0.000108084 0.0
								CHANNELS 6 Xposition Yposition Zposition Zrotation Xrotation Yrotation 
								End Site
								{
									OFFSET 0.0 0.0 0.0
								}
							}
						}
					}
				}
			}
		}
		JOINT UpperLeg_L
		{
			OFFSET -2.19248 -6.46944 0.0
			CHANNELS 6 Xposition Yposition Zposition Zrotation Xrotation Yrotation 
			JOINT LowerLeg_L
			{
				OFFSET 39.0811 0.0 -1.23785e-05
				CHANNELS 6 Xposition Yposition Zposition Zrotation Xrotation Yrotation 
				JOINT Foot_L
				{
					OFFSET 40.9854 0.0 -1.26872e-05
					CHANNELS 6 Xposition Yposition Zposition Zrotation Xrotation Yrotation 
					JOINT Toes_L
					{
						OFFSET 11.7543 0.0 0.0
						CHANNELS 6 Xposition Yposition Zposition Zrotation Xrotation Yrotation 
						End Site
						{
							OFFSET 0.0 0.0 0.0
						}
					}
				}
			}
		}
		JOINT UpperLeg_R
		{
			OFFSET -2.19251 6.46944 0.0
			CHANNELS 6 Xposition Yposition Zposition Zrotation Xrotation Yrotation 
			JOINT LowerLeg_R
			{
				OFFSET -39.0811 -0.00228153 -0.0401928
				CHANNELS 6 Xposition Yposition Zposition Zrotation Xrotation Yrotation 
				JOINT Foot_R
				{
					OFFSET -40.9854 0.0 0.0
					CHANNELS 6 Xposition Yposition Zposition Zrotation Xrotation Yrotation 
					JOINT Toes_R
					{
						OFFSET -11.7543 0.0 0.0
						CHANNELS 6 Xposition Yposition Zposition Zrotation Xrotation Yrotation 
						End Site
						{
							OFFSET 0.0 0.0 0.0
						}
					}
				}
			}
		}
	}
}
MOTION
Frames:	5
Frame Time:	0.0333333
0.000000 0.000000 0.000000 0.000000 0.000000 -0.000000 -3.258880 82.975400 -0.133570 86.214900 -8.522890 10.876700 15.735700 0.000005 -0.000001 77.268900 79.867400 -75.697500 8.984550 -0.406207 -0.000000 12.088800 -4.367570 3.606000 16.377300 -0.000001 -0.000001 -3.109250 2.216820 3.360800 6.456720 -0.000001 -0.000000 -8.202190 9.633190 2.627040 12.994200 -0.242716 4.980390 -91.119400 3.780770 -73.493600 5.348090 -0.000007 -0.000001 -65.093000 33.705600 -8.274420 24.328600 0.000019 0.000005 8.278470 11.447600 -36.246500 22.291600 -0.000001 0.000005 14.008400 5.246570 1.521370 12.994500 -0.242716 -4.980390 86.207800 12.777100 -73.316100 -5.348130 -0.000001 -0.000004 -60.449400 -0.088881 0.877379 -24.328900 0.000322 -0.000009 0.206107 1.195440 -10.317200 -22.291500 -0.000108 -0.000004 10.828100 5.027840 6.751960 -2.192480 -6.469440 -0.000000 -169.677000 -8.466170 -12.302500 39.081100 -0.000007 -0.000012 -0.695091 0.399484 60.114800 40.985400 -0.000006 -0.000013 -4.689070 -0.843200 -85.865500 11.754300 -0.000000 0.000003 -0.000436 -0.003553 -16.708100 -2.192510 6.469440 -0.000001 -178.125000 10.973300 166.596000 -39.081100 -0.002282 -0.040193 0.070340 -0.040107 59.145600 -40.985400 0.000008 0.000006 8.384390 3.874860 -84.692300 -11.754300 -0.000006 -0.000006 -0.001257 -0.018994 -17.345500
0.000000 0.000000 0.000000 0.000000 0.000000 -0.000000 -4.254380 84.376200 0.315738 85.702700 -4.646680 10.372400 15.735700 0.000005 -0.000001 77.039400 80.849500 -76.223600 8.984550 -0.406207 -0.000000 10.117000 -4.061530 1.990780 16.377300 -0.000001 -0.000001 -2.744320 1.541390 3.185880 6.456720 -0.000001 -0.000000 -7.300040 8.095210 3.256110 12.994200 -0.242716 4.980390 -91.228900 4.075660 -73.205400 5.348090 -0.000007 -0.000001 -65.182900 32.592600 -8.859130 24.328600 0.000019 0.000005 7.157820 11.176700 -32.933800 22.291600 -0.000001 0.000005 14.950300 5.210230 2.460640 12.994500 -0.242716 -4.980390 86.550000 11.462200 -73.123400 -5.348130 -0.000001 -0.000004 -58.432800 -5.480550 -0.530833 -24.328900 0.000322 -0.000009 0.630942 5.937450 -6.085360 -22.291500 -0.000108 -0.000004 5.606620 5.032400 6.612530 -2.192480 -6.469440 -0.000000 -168.888000 -6.088400 -11.356700 39.081100 -0.000007 -0.000012 -0.646574 0.436456 55.981100 40.985400 -0.000006 -0.000013 -4.553820 0.715417 -83.563700 11.754300 -0.000000 0.000003 -0.000402 -0.003318 -16.699900 -2.192510 6.469440 -0.000001 -177.368000 13.965300 168.959000 -39.081100 -0.002282 -0.040193 0.075823 -0.051721 54.531300 -40.985400 0.000008 0.000006 8.297490 3.120220 -82.866000 -11.754300 -0.000006 -0.000006 -0.001298 -0.019558 -17.368400
0.000000 0.000000 0.000000 0.000000 0.000000 -0.000000 -4.978300 86.453500 0.553866 85.915900 -1.084680 8.546000 15.735700 0.000005 -0.000001 75.425900 82.415400 -75.823200 8.984550 -0.406207 -0.000000 6.913510 -3.801260 -0.564354 16.377300 -0.000001 -0.000001 -1.491790 0.806312 3.177000 6.456720 -0.000001 -0.000000 -6.030120 6.080650 4.449550 12.994200 -0.242716 4.980390 -91.112900 3.589370 -72.760300 5.348090 -0.000007 -0.000001 -65.638700 32.266100 -8.665710 24.328600 0.000019 0.000005 5.269320 9.563570 -29.028600 22.291600 -0.000001 0.000005 14.933500 5.210110 2.463890 12.994500 -0.242716 -4.980390 87.145600 9.407280 -73.035500 -5.348130 -0.000001 -0.000004 -54.431500 -11.963000 -5.065090 -24.328900 0.000322 -0.000009 0.424537 5.209570 -4.675550 -22.291500 -0.000108 -0.000004 2.745410 5.011120 7.082040 -2.192480 -6.469440 -0.000000 -169.104000 -4.682210 -10.640300 39.081100 -0.000007 -0.000012 -0.510758 0.441046 49.190200 40.985400 -0.000006 -0.000013 -4.277340 2.183270 -79.746200 11.754300 -0.000000 0.000003 -0.000330 -0.002818 -16.682200 -2.192510 6.469440 -0.000001 -177.004000 16.424600 170.646000 -39.081100 -0.002282 -0.040193 0.069299 -0.060167 47.666000 -40.985400 0.000008 0.000006 8.153150 2.765530 -79.527400 -11.754300 -0.000006 -0.000006 -0.116715 -0.159000 -17.556800
0.000000 0.000000 0.000000 0.000000 0.000000 -0.000000 -5.292380 88.455600 0.600995 86.504500 1.514120 6.234960 15.735700 0.000005 -0.000001 73.535500 84.072000 -75.173800 8.984550 -0.406207 -0.000000 3.563750 -3.295950 -3.171100 16.377300 -0.000001 -0.000001 0.242442 0.111906 2.902510 6.456720 -0.000001 -0.000000 -4.754950 4.008460 5.627530 12.994200 -0.242716 4.980390 -90.885500 2.756810 -72.184600 5.348090 -0.000007 -0.000001 -65.899500 32.741500 -8.139550 24.328600 0.000019 0.000005 4.880980 10.076300 -26.021900 22.291600 -0.000001 0.000005 12.959800 5.202010 2.667910 12.994500 -0.242716 -4.980390 87.792400 7.324070 -73.176600 -5.348130 -0.000001 -0.000004 -48.558700 -19.639400 -13.372100 -24.328900 0.000322 -0.000009 0.240230 3.006680 -4.601740 -22.291500 -0.000108 -0.000004 4.891790 5.012600 7.061810 -2.192480 -6.469440 -0.000000 -169.815000 -4.622760 -9.890260 39.081100 -0.000007 -0.000012 -0.383707 0.430934 41.683000 40.985400 -0.000006 -0.000013 -3.876010 3.594810 -75.537900 11.754300 -0.000000 0.000003 -0.000207 -0.001908 -16.649500 -2.192510 6.469440 -0.000001 -177.019000 18.483500 171.774000 -39.081100 -0.002282 -0.040193 0.055967 -0.061690 40.501100 -40.985400 0.000008 0.000006 7.928020 3.289710 -75.654600 -11.754300 -0.000006 -0.000006 -0.160630 -0.217163 -17.968700
0.000000 0.000000 0.000000 0.000000 0.000000 -0.000000 -5.223980 89.812400 0.538044 87.045400 2.458490 4.621200 15.735700 0.000005 -0.000001 73.876200 85.258100 -76.274000 8.984550 -0.406207 -0.000000 1.298440 -2.497290 -4.763530 16.377300 -0.000001 -0.000001 1.503710 0.009450 2.003480 6.456720 -0.000001 -0.000000 -3.749510 2.683170 5.525200 12.994200 -0.242716 4.980390 -90.781900 2.298790 -71.208400 5.348090 -0.000007 -0.000001 -65.902900 33.373500 -7.731940 24.328600 0.000019 0.000005 5.986680 13.593500 -24.049900 22.291600 -0.000001 0.000005 10.848400 5.205530 2.579660 12.994500 -0.242716 -4.980390 88.637600 5.011210 -74.780400 -5.348130 -0.000001 -0.000004 -41.865700 -28.872200 -23.811700 -24.328900 0.000322 -0.000009 -0.257689 -1.802560 -7.907210 -22.291500 -0.000108 -0.000004 8.757230 5.135790 4.334180 -2.192480 -6.469440 -0.000000 -170.461000 -6.309880 -8.830160 39.081100 -0.000007 -0.000012 -0.292806 0.405847 35.809900 40.985400 -0.000006 -0.000013 -3.303360 5.204900 -72.280300 11.754300 -0.000000 0.000003 -0.000114 -0.001154 -16.621700 -2.192510 6.469440 -0.000001 -177.365000 19.824500 172.856000 -39.081100 -0.002282 -0.040193 0.042563 -0.056239 34.926900 -40.985400 0.000008 0.000006 7.677340 4.640130 -72.793900 -11.754300 -0.000006 -0.000006 -0.079122 -0.126200 -18.150600
